<?xml version="1.0" standalone="no"?>
<!DOCTYPE svg PUBLIC "-//W3C//DTD SVG 20010904//EN"
 "http://www.w3.org/TR/2001/REC-SVG-20010904/DTD/svg10.dtd">
<svg version="1.0" xmlns="http://www.w3.org/2000/svg"
 width="100.000000pt" height="90.000000pt" viewBox="0 0 100.000000 90.000000"
 preserveAspectRatio="xMidYMid meet">

<g transform="translate(0.000000,90.000000) scale(0.100000,-0.100000)"
fill="#000000" stroke="none">
<path d="M0 450 l0 -450 500 0 500 0 0 450 0 450 -500 0 -500 0 0 -450z m425
200 l0 -165 -155 -3 c-85 -2 -159 -7 -164 -12 -5 -5 -6 -16 -3 -24 5 -12 20
-16 58 -16 37 0 49 -3 45 -12 -3 -7 -9 -21 -12 -30 -5 -14 -17 -18 -51 -18
-36 0 -50 6 -74 29 l-29 29 0 162 c0 162 5 191 39 217 12 9 62 12 181 10 l165
-2 0 -165z m513 9 c2 -130 0 -158 -13 -169 -20 -16 -19 -57 1 -68 9 -5 14 -18
12 -28 -3 -17 -14 -19 -84 -22 -71 -2 -82 0 -88 15 -3 10 -9 24 -12 31 -4 9 9
12 50 12 53 0 56 1 56 25 l0 25 -112 2 c-62 1 -132 1 -155 0 l-43 -2 0 146 c0
141 1 146 25 170 24 24 25 24 192 22 l168 -3 3 -156z m-495 -243 l35 -27 44
31 c74 52 159 40 205 -29 28 -41 30 -95 5 -136 -19 -31 -237 -230 -252 -230
-15 0 -233 199 -252 230 -44 73 0 177 84 194 45 10 89 -1 131 -33z"/>
<path d="M160 695 c0 -13 14 -15 93 -13 53 2 92 7 92 13 0 6 -39 11 -92 13
-79 2 -93 0 -93 -13z"/>
<path d="M163 638 c2 -9 30 -13 92 -13 62 0 90 4 93 13 3 9 -20 12 -93 12 -73
0 -96 -3 -92 -12z"/>
<path d="M667 704 c-17 -17 11 -24 94 -24 72 0 89 3 89 15 0 12 -16 15 -88 15
-49 0 -92 -3 -95 -6z"/>
<path d="M660 640 c0 -15 39 -21 114 -18 44 2 71 8 74 16 3 9 -20 12 -92 12
-56 0 -96 -4 -96 -10z"/>
</g>
</svg>
