<?xml version="1.0" standalone="no"?>
<!DOCTYPE svg PUBLIC "-//W3C//DTD SVG 20010904//EN"
 "http://www.w3.org/TR/2001/REC-SVG-20010904/DTD/svg10.dtd">
<svg version="1.0" xmlns="http://www.w3.org/2000/svg"
 width="40.000000pt" height="37.000000pt" viewBox="0 0 40.000000 37.000000"
 preserveAspectRatio="xMidYMid meet">

<g transform="translate(0.000000,37.000000) scale(0.100000,-0.100000)"
fill="#000000" stroke="none">
<path d="M72 278 c-15 -15 -16 -221 -2 -249 10 -17 22 -19 130 -19 l120 0 0
140 0 140 -118 0 c-78 0 -122 -4 -130 -12z m236 -93 c2 -48 -2 -88 -9 -102 -9
-17 -9 -26 -1 -36 7 -8 9 -17 5 -20 -12 -12 -188 -8 -201 5 -17 17 -16 210 0
226 9 9 42 12 108 10 l95 -3 3 -80z"/>
<path d="M150 200 c0 -5 25 -10 56 -10 34 0 53 4 49 10 -3 6 -28 10 -56 10
-27 0 -49 -4 -49 -10z"/>
<path d="M155 170 c-4 -6 15 -10 50 -10 35 0 54 4 50 10 -3 6 -26 10 -50 10
-24 0 -47 -4 -50 -10z"/>
<path d="M122 68 c3 -8 29 -14 71 -16 55 -2 67 0 67 13 0 12 -14 15 -71 15
-52 0 -70 -3 -67 -12z"/>
</g>
</svg>
