<svg width="128" height="128" viewBox="0 0 128 128" fill="none" xmlns="http://www.w3.org/2000/svg">
<path d="M56.381 31.7408V120.285C56.381 126.219 50.0267 129.918 44.9524 126.959L3.80952 102.931C1.44762 101.559 0 99.016 0 96.2572V7.72822C0 1.79444 6.35429 -1.90454 11.4286 1.05464L52.5714 25.0826C54.9333 26.4543 56.381 28.9974 56.381 31.7562V31.7408ZM116.571 1.03923L109.44 5.20058V27.5486C109.44 27.8414 109.166 28.0572 108.876 27.9956L105.752 27.2712C105.585 27.2403 105.402 27.302 105.295 27.4407L101.379 32.4343C101.12 32.7734 100.571 32.5885 100.571 32.1415V10.3792L75.4286 25.0672C73.0667 26.4389 71.619 28.982 71.619 31.7408V120.285C71.619 126.219 77.9733 129.918 83.0476 126.959L124.19 102.931C126.552 101.559 128 99.016 128 96.2572V7.71281C128 1.79444 121.646 -1.91995 116.571 1.03923Z" fill="url(#paint0_linear_287_848)"/>
<defs>
<linearGradient id="paint0_linear_287_848" x1="37.9429" y1="150.324" x2="75.2983" y2="12.5028" gradientUnits="userSpaceOnUse">
<stop stop-color="#4A67DF"/>
<stop offset="0.32" stop-color="#4A67DF"/>
<stop offset="0.94" stop-color="#2FD6CB"/>
<stop offset="1" stop-color="#2FD6CB"/>
</linearGradient>
</defs>
</svg>
