<?xml version="1.0" standalone="no"?>
<!DOCTYPE svg PUBLIC "-//W3C//DTD SVG 20010904//EN"
 "http://www.w3.org/TR/2001/REC-SVG-20010904/DTD/svg10.dtd">
<svg version="1.0" xmlns="http://www.w3.org/2000/svg"
 width="346.000000pt" height="290.000000pt" viewBox="0 0 346.000000 290.000000"
 preserveAspectRatio="xMidYMid meet">

<g transform="translate(0.000000,290.000000) scale(0.100000,-0.100000)"
fill="#000000" stroke="none">
<path d="M248 2866 c-95 -34 -149 -81 -199 -176 l-24 -45 0 -615 0 -615 33
-67 c59 -120 147 -170 308 -176 l101 -4 -8 48 c-4 27 -8 74 -8 105 l-1 56 -72
5 c-84 5 -112 19 -134 67 -14 28 -14 40 -5 73 18 59 57 78 158 78 l81 0 18 53
c57 174 186 346 328 439 l59 38 -201 0 c-217 0 -232 4 -232 55 0 55 3 55 370
55 186 0 341 -4 344 -8 3 -5 45 -9 93 -10 78 0 183 -17 236 -37 16 -7 17 12
17 310 l0 317 -34 34 -34 34 -579 0 c-449 -1 -586 -4 -615 -14z m926 -432 c19
-18 21 -55 4 -72 -17 -17 -699 -17 -716 0 -7 7 -12 24 -12 38 0 50 1 50 366
50 298 0 345 -2 358 -16z"/>
<path d="M2175 2866 c-65 -21 -99 -42 -144 -91 -80 -87 -85 -108 -89 -369 -4
-203 -2 -228 11 -223 86 33 223 47 333 35 73 -8 89 -7 103 6 15 14 63 16 350
16 210 0 339 -4 352 -10 12 -7 19 -21 19 -38 0 -57 3 -57 -276 -62 l-257 -5
54 -36 c130 -87 256 -248 310 -401 l32 -88 68 0 69 0 0 -110 0 -110 -55 0 -55
0 0 -62 c-1 -35 -5 -82 -9 -105 l-8 -43 184 0 c155 0 190 3 213 17 58 34 68
116 21 164 -16 16 -39 29 -50 29 -20 0 -21 5 -21 110 0 101 2 110 19 110 10 0
33 13 50 29 l31 29 0 577 0 577 -34 34 -34 34 -574 -1 c-433 0 -583 -3 -613
-13z m923 -428 c15 -15 15 -61 0 -76 -17 -17 -699 -17 -716 0 -17 17 -15 54 4
72 13 14 60 16 358 16 253 0 345 -3 354 -12z"/>
<path d="M1116 2009 c-22 -5 -74 -26 -115 -46 -89 -42 -209 -155 -258 -243
-132 -232 -120 -554 27 -775 47 -70 838 -878 882 -901 40 -21 105 -21 144 -1
46 24 840 834 886 904 146 221 156 542 25 773 -17 30 -65 89 -106 130 -121
121 -238 170 -401 170 -106 -1 -155 -12 -249 -56 -50 -25 -97 -58 -150 -109
l-76 -73 -75 71 c-82 79 -165 128 -255 152 -65 16 -216 19 -279 4z"/>
</g>
</svg>
