<?xml version="1.0" standalone="no"?>
<!DOCTYPE svg PUBLIC "-//W3C//DTD SVG 20010904//EN"
 "http://www.w3.org/TR/2001/REC-SVG-20010904/DTD/svg10.dtd">
<svg version="1.0" xmlns="http://www.w3.org/2000/svg"
 width="345.000000pt" height="288.000000pt" viewBox="0 0 345.000000 288.000000"
 preserveAspectRatio="xMidYMid meet">

<g transform="translate(0.000000,288.000000) scale(0.100000,-0.100000)"
fill="#000000" stroke="none">
<path d="M248 2856 c-95 -34 -149 -81 -199 -176 l-24 -45 0 -615 0 -615 33
-67 c37 -75 72 -110 152 -147 52 -25 64 -26 253 -29 l197 -4 0 105 0 105 -177
4 c-197 3 -211 7 -239 67 -23 47 -5 104 39 131 28 18 51 20 205 20 l172 0 0
58 c0 74 31 198 67 265 15 29 62 87 103 130 l76 77 -212 0 c-230 0 -244 3
-244 55 0 55 3 55 366 55 185 0 343 -3 352 -7 9 -5 90 -7 180 -5 l162 3 0 290
0 291 -34 34 -34 34 -579 0 c-449 -1 -586 -4 -615 -14z m926 -432 c19 -18 21
-55 4 -72 -17 -17 -699 -17 -716 0 -7 7 -12 24 -12 38 0 50 1 50 366 50 298 0
345 -2 358 -16z"/>
<path d="M2175 2856 c-65 -21 -99 -42 -144 -91 -78 -84 -85 -112 -89 -343 l-4
-203 564 7 c613 8 608 8 608 -46 0 -57 -12 -60 -221 -60 l-190 0 31 -39 c50
-62 60 -112 60 -313 l0 -178 160 0 160 0 0 -110 0 -110 -160 0 -160 0 0 -105
0 -105 281 0 c244 0 285 2 309 17 58 34 68 116 21 164 -16 16 -39 29 -50 29
-20 0 -21 5 -21 110 0 101 2 110 19 110 10 0 33 13 50 29 l31 29 0 577 0 577
-34 34 -34 34 -574 -1 c-433 0 -583 -3 -613 -13z m923 -428 c15 -15 15 -61 0
-76 -17 -17 -699 -17 -716 0 -17 17 -15 54 4 72 13 14 60 16 358 16 253 0 345
-3 354 -12z"/>
<path d="M1105 1992 c-104 -45 -169 -105 -213 -200 l-27 -57 -3 -690 c-3 -666
-2 -691 17 -755 25 -78 79 -154 145 -197 94 -64 82 -63 813 -63 729 0 706 -2
738 60 37 71 4 156 -70 180 l-35 12 0 124 0 124 26 0 c16 0 39 13 60 34 l34
34 -2 677 -3 677 -33 29 -32 29 -688 -1 c-624 0 -691 -2 -727 -17z m1093 -488
c42 -29 23 -96 -31 -109 -12 -3 -192 -5 -399 -3 -336 3 -379 5 -394 20 -24 23
-21 68 6 90 21 17 51 18 409 18 334 0 390 -2 409 -16z m0 -250 c26 -18 30 -65
6 -88 -13 -14 -65 -16 -418 -16 -347 0 -405 2 -416 15 -18 22 -15 62 5 85 17
19 33 20 409 20 338 0 395 -2 414 -16z m22 -849 l0 -125 -510 0 c-561 0 -554
-1 -585 60 -34 66 -2 154 65 177 25 9 174 12 533 12 l497 1 0 -125z"/>
</g>
</svg>
